<svg width="500" height="351" viewBox="0 0 500 351" fill="none" xmlns="http://www.w3.org/2000/svg">
    <g id="web_developer" clip-path="url(#clip0)">
        <path id="Vector" d="M67.2516 279.634H84.3702L126.555 263.127C126.555 263.127 156.513 250.899 154.067 274.132C151.622 297.364 147.342 328.544 147.342 328.544C147.342 328.544 133.892 322.431 126.555 324.265C119.219 326.099 124.11 286.971 124.11 286.971C124.11 286.971 64.1947 315.705 58.6923 312.037C53.1899 308.369 51.9672 282.691 51.9672 282.691L67.2516 279.634Z" fill="#2F2E41" />
        <path id="Vector_2" opacity="0.1" d="M67.2516 279.634H84.3702L126.555 263.127C126.555 263.127 156.513 250.899 154.067 274.132C151.622 297.364 147.342 328.544 147.342 328.544C147.342 328.544 133.892 322.431 126.555 324.265C119.219 326.099 124.11 286.971 124.11 286.971C124.11 286.971 64.1947 315.705 58.6923 312.037C53.1899 308.369 51.9672 282.691 51.9672 282.691L67.2516 279.634Z" fill="black" />
        <g id="left_hand">
            <path id="Vector_3" d="M94.2221 226.025L114.939 255.79L163.238 296.141C163.238 296.141 207.869 306.535 201.755 313.871C195.641 321.208 158.347 306.535 158.347 306.535C158.347 306.535 102.712 266.184 100.877 263.127C99.0433 260.07 78.8678 231.335 78.8678 231.335L94.2221 226.025Z" fill="#A0616A" />
            <path id="Vector_4" opacity="0.1" d="M94.2221 226.025L114.939 255.79L163.238 296.141C163.238 296.141 207.869 306.535 201.755 313.871C195.641 321.208 158.347 306.535 158.347 306.535C158.347 306.535 102.712 266.184 100.877 263.127C99.0433 260.07 78.8678 231.335 78.8678 231.335L94.2221 226.025Z" fill="black" />
        </g>
        <path id="Vector_5" d="M81.9247 201.989L95.375 228.278C95.375 228.278 92.3181 241.117 87.4271 242.34C82.5361 243.563 61.7492 226.444 61.7492 226.444L81.9247 201.989Z" fill="#D0CDE1" />
        <path id="Vector_6" opacity="0.9" d="M81.9247 201.989L95.375 228.278C95.375 228.278 92.3181 241.117 87.4271 242.34C82.5361 243.563 61.7492 226.444 61.7492 226.444L81.9247 201.989Z" fill="#801AFD" />
        <path id="Vector_7" d="M246.013 266.023L249.986 282.412C250.03 282.594 250.023 282.786 249.966 282.965L231.943 339.286C231.872 339.509 231.726 339.701 231.53 339.83C231.335 339.959 231.101 340.016 230.868 339.993C230.635 339.97 230.417 339.868 230.25 339.704C230.083 339.539 229.978 339.323 229.951 339.09L227.458 317.149C227.441 317.004 227.456 316.856 227.502 316.717L244.045 265.947C244.114 265.735 244.25 265.551 244.433 265.424C244.616 265.296 244.835 265.232 245.058 265.241C245.28 265.249 245.494 265.33 245.666 265.471C245.839 265.613 245.96 265.806 246.013 266.023Z" fill="#2F2E41" />
        <path id="Vector_8" d="M244.552 267.407L248.219 281.468L232.324 332.824L228.656 316.928L244.552 267.407Z" fill="#F2F2F2" />
        <path id="Vector_9" d="M164.461 343.829C165.072 345.663 228.044 343.217 228.656 342.606C229.189 341.84 229.639 341.021 230.001 340.161C230.575 338.938 231.101 337.715 231.101 337.715L228.656 317.919L166.295 315.705C166.295 315.705 164.736 332.482 164.418 340.161C164.339 342.099 164.339 343.462 164.461 343.829Z" fill="#2F2E41" />
        <path id="Vector_10" opacity="0.1" d="M220.708 320.597L221.93 337.715H194.418V320.597H220.708Z" fill="black" />
        <path id="Vector_11" opacity="0.1" d="M185.248 326.099L185.412 326.066L184.636 333.436H169.352V326.099H185.248Z" fill="black" />
        <path id="Vector_12" opacity="0.1" d="M164.461 343.829C165.072 345.663 228.044 343.217 228.656 342.606C229.189 341.84 229.639 341.021 230.001 340.161H164.418C164.339 342.099 164.339 343.462 164.461 343.829Z" fill="black" />
        <g id="right_hand">
            <path id="vector" d="M94.1523 238.06L119.219 271.075L179.134 315.705C179.134 315.705 222.542 324.876 212.76 331.601C202.978 338.326 174.854 325.487 174.854 325.487C174.854 325.487 114.328 293.084 101.489 279.634C88.6498 266.184 64.8061 243.563 64.8061 243.563L94.1523 238.06Z" fill="#A0616A" />
        </g>
        <path id="Vector_13" d="M60.5265 289.416L67.863 301.032L111.648 287.257C121.255 284.235 131.79 285.347 140.311 290.715C147.954 295.53 152.845 303.172 141.84 314.483C119.83 337.104 105.157 324.876 105.157 324.876C105.157 324.876 31.1803 359.725 18.9528 342.606C6.72519 325.487 6.11383 316.928 6.11383 316.928C6.11383 316.928 53.1899 287.582 60.5265 289.416Z" fill="#2F2E41" />
        <path id="Vector_14" d="M152.233 329.767C152.233 329.767 171.797 342.606 148.565 348.72C125.333 354.834 108.214 346.274 108.214 346.274C108.214 346.274 88.0385 346.274 88.0385 335.881C88.0385 325.488 94.7637 324.265 94.7637 324.265L115.551 327.322C115.551 327.322 140.617 320.596 152.233 329.767Z" fill="#D0CDE1" />
        <g id="head_part">
            <path id="Vector_15" d="M89.2613 190.373C89.2613 190.373 80.0906 206.269 78.2564 214.828C76.4223 223.387 50.7444 197.709 50.7444 197.709L47.3818 188.844C47.3818 188.844 71.5313 177.534 69.6971 168.363C67.863 159.193 89.2613 190.373 89.2613 190.373Z" fill="#A0616A" />
            <g id="Group 1">
                <path id="Vector_16" d="M91.0954 193.43C106.29 193.43 118.607 181.112 118.607 165.918C118.607 150.723 106.29 138.406 91.0954 138.406C75.9009 138.406 63.5834 150.723 63.5834 165.918C63.5834 181.112 75.9009 193.43 91.0954 193.43Z" fill="#A0616A" />
                <path id="Vector_17" d="M113.665 158.997C115.537 159.832 117.394 160.82 119.43 161.062C121.466 161.304 123.784 160.594 124.747 158.784C125.268 157.806 125.327 156.657 125.352 155.549C125.425 152.192 125.182 148.563 123.055 145.965C121.701 144.311 119.724 143.269 118.323 141.656C117.319 140.5 116.651 139.099 115.931 137.747C113.205 132.628 109.17 127.708 103.561 126.232C101.219 125.616 98.7619 125.646 96.3404 125.68L82.2161 125.879C79.9304 125.912 77.6095 125.949 75.4214 126.611C70.8752 127.985 67.5651 131.808 64.5335 135.464C62.2655 138.2 59.9914 140.963 58.2892 144.082C55.8487 148.634 54.6147 153.735 54.7047 158.899C54.6858 160.223 54.8568 161.543 55.2125 162.819C55.6286 163.989 56.1441 165.122 56.7534 166.204C59.4022 171.406 60.9749 177.905 57.9919 182.923C63.1737 180.807 68.3008 178.031 71.719 173.599C73.2481 171.616 74.4473 169.295 76.4852 167.839C78.5231 166.384 81.8436 166.258 83.1511 168.394C83.6006 169.258 83.832 170.218 83.8253 171.192C83.9208 172.795 83.9181 174.46 84.5978 175.915C85.2774 177.37 86.8964 178.544 88.4421 178.108C91.1039 177.358 90.849 173.273 92.8993 171.417C94.4563 170.008 96.8585 170.277 98.8589 169.637C101.189 168.892 102.938 166.873 103.935 164.638C104.692 162.939 104.681 158.494 106.114 157.574C107.912 156.42 111.999 158.254 113.665 158.997Z" fill="#2F2E41" />
            </g>
        </g>
        <path id="Vector_18" d="M45.1979 185.944C46.4355 185.614 47.7386 185.617 48.9746 185.954C52.8992 187.008 61.697 189.797 63.5833 194.041C66.0288 199.544 74.5881 208.103 74.5881 208.103C74.5881 208.103 86.2043 219.719 83.7588 227.667C81.3133 235.615 72.1426 244.786 72.1426 244.786C72.1426 244.786 74.5881 282.691 62.3606 292.473C50.133 302.255 45.242 295.53 45.242 304.701C45.242 313.871 7.33654 342.606 0 324.876C0 324.876 3.66827 291.862 2.44552 280.246C1.24039 268.797 3.00463 197.367 45.1979 185.944Z" fill="#801AFD" />
        <path id="Vector_19" d="M64.8061 201.378C64.8061 201.378 102.1 228.89 95.375 240.506C95.375 240.506 72.754 251.511 67.863 250.899C62.972 250.288 44.0193 228.89 39.1282 227.056C34.2372 225.221 31.7917 192.207 64.8061 201.378Z" fill="#801AFD" />
        <path id="Vector_20" d="M231.429 140.539C248.109 140.539 261.631 127.017 261.631 110.336C261.631 93.6559 248.109 80.1337 231.429 80.1337C214.748 80.1337 201.226 93.6559 201.226 110.336C201.226 127.017 214.748 140.539 231.429 140.539Z" fill="#F2F2F2" />
        <path id="Vector_21" d="M480.887 71.1113H311.636V35.6954H480.887V71.1113ZM312.382 70.3657H480.141V36.441H312.382V70.3657Z" fill="#3F3D56" />
        <path id="Vector_22" d="M468.584 42.7786H300.08V77.4489H468.584V42.7786Z" fill="#801AFD" />
        <path id="Vector_23" d="M193.56 9.69277C195.001 9.69277 196.169 8.5244 196.169 7.08315C196.169 5.64189 195.001 4.47353 193.56 4.47353C192.118 4.47353 190.95 5.64189 190.95 7.08315C190.95 8.5244 192.118 9.69277 193.56 9.69277Z" fill="#801AFD" />
        <path id="Vector_24" d="M202.507 9.69277C203.948 9.69277 205.116 8.5244 205.116 7.08315C205.116 5.64189 203.948 4.47353 202.507 4.47353C201.065 4.47353 199.897 5.64189 199.897 7.08315C199.897 8.5244 201.065 9.69277 202.507 9.69277Z" fill="#801AFD" />
        <path id="Vector_25" d="M211.454 9.69277C212.895 9.69277 214.064 8.5244 214.064 7.08315C214.064 5.64189 212.895 4.47353 211.454 4.47353C210.013 4.47353 208.844 5.64189 208.844 7.08315C208.844 8.5244 210.013 9.69277 211.454 9.69277Z" fill="#801AFD" />
        <path id="Vector_26" d="M500 204.294H186.104V0H500V204.294ZM186.849 203.548H499.254V0.745598H186.849V203.548Z" fill="#3F3D56" />
        <path id="Vector_27" d="M499.627 11.3088H186.476V12.0544H499.627V11.3088Z" fill="#3F3D56" />
        <path id="Vector_28" d="M194.305 8.94717C193.715 8.94717 193.139 8.77226 192.648 8.44455C192.158 8.11684 191.776 7.65105 191.55 7.10609C191.324 6.56113 191.265 5.96147 191.38 5.38295C191.495 4.80442 191.779 4.27301 192.196 3.85591C192.613 3.43882 193.145 3.15477 193.723 3.0397C194.302 2.92462 194.902 2.98368 195.447 3.20941C195.991 3.43514 196.457 3.81741 196.785 4.30786C197.113 4.79831 197.288 5.37492 197.288 5.96478C197.287 6.75548 196.972 7.51353 196.413 8.07264C195.854 8.63175 195.096 8.94626 194.305 8.94717ZM194.305 3.72799C193.863 3.72799 193.43 3.85918 193.063 4.10496C192.695 4.35074 192.408 4.70008 192.239 5.1088C192.069 5.51752 192.025 5.96726 192.111 6.40116C192.198 6.83505 192.411 7.23361 192.724 7.54643C193.036 7.85925 193.435 8.07229 193.869 8.1586C194.303 8.2449 194.752 8.2006 195.161 8.03131C195.57 7.86201 195.919 7.57532 196.165 7.20748C196.411 6.83964 196.542 6.40718 196.542 5.96478C196.541 5.37176 196.305 4.80322 195.886 4.38389C195.467 3.96456 194.898 3.72868 194.305 3.72799V3.72799Z" fill="#3F3D56" />
        <path id="Vector_29" d="M203.252 8.94717C202.663 8.94717 202.086 8.77226 201.595 8.44455C201.105 8.11684 200.723 7.65105 200.497 7.10609C200.271 6.56113 200.212 5.96147 200.327 5.38295C200.442 4.80442 200.726 4.27301 201.144 3.85591C201.561 3.43882 202.092 3.15477 202.671 3.0397C203.249 2.92462 203.849 2.98368 204.394 3.20941C204.939 3.43514 205.404 3.81741 205.732 4.30786C206.06 4.79831 206.235 5.37492 206.235 5.96478C206.234 6.75548 205.919 7.51353 205.36 8.07264C204.801 8.63175 204.043 8.94626 203.252 8.94717V8.94717ZM203.252 3.72799C202.81 3.72799 202.378 3.85918 202.01 4.10496C201.642 4.35074 201.355 4.70008 201.186 5.1088C201.017 5.51752 200.972 5.96726 201.059 6.40116C201.145 6.83505 201.358 7.23361 201.671 7.54643C201.984 7.85925 202.382 8.07229 202.816 8.1586C203.25 8.2449 203.7 8.2006 204.108 8.03131C204.517 7.86201 204.866 7.57532 205.112 7.20748C205.358 6.83964 205.489 6.40718 205.489 5.96478C205.489 5.37176 205.253 4.80322 204.833 4.38389C204.414 3.96456 203.845 3.72868 203.252 3.72799V3.72799Z" fill="#3F3D56" />
        <path id="Vector_30" d="M212.2 8.94717C211.61 8.94717 211.033 8.77226 210.543 8.44455C210.052 8.11684 209.67 7.65106 209.444 7.1061C209.218 6.56114 209.159 5.96147 209.274 5.38295C209.39 4.80442 209.674 4.27301 210.091 3.85591C210.508 3.43882 211.039 3.15478 211.618 3.0397C212.196 2.92462 212.796 2.98368 213.341 3.20941C213.886 3.43514 214.352 3.8174 214.679 4.30785C215.007 4.7983 215.182 5.37491 215.182 5.96478C215.181 6.75547 214.867 7.51352 214.307 8.07263C213.748 8.63174 212.99 8.94625 212.2 8.94717V8.94717ZM212.2 3.72799C211.757 3.72799 211.325 3.85917 210.957 4.10495C210.589 4.35074 210.302 4.70007 210.133 5.1088C209.964 5.51752 209.919 5.96726 210.006 6.40115C210.092 6.83505 210.305 7.23361 210.618 7.54643C210.931 7.85925 211.329 8.07229 211.763 8.15859C212.197 8.2449 212.647 8.2006 213.056 8.03131C213.464 7.86201 213.814 7.57531 214.059 7.20747C214.305 6.83964 214.436 6.40717 214.436 5.96478C214.436 5.37176 214.2 4.80322 213.78 4.38389C213.361 3.96456 212.793 3.72868 212.2 3.72799V3.72799Z" fill="#3F3D56" />
        <path id="Vector_31" d="M285.166 11.6816H284.421V204.21H285.166V11.6816Z" fill="#3F3D56" />
        <path id="Vector_32" d="M374.826 106.341H320.024V113.797H374.826V106.341Z" fill="#F2F2F2" />
        <path id="Vector_33" d="M460.942 106.341H406.141V113.797H460.942V106.341Z" fill="#F2F2F2" />
        <path id="Vector_34" d="M378.181 110.442H322.634V102.24H378.181V110.442ZM323.379 109.696H377.435V102.986H323.379V109.696Z" fill="#3F3D56" />
        <path id="Vector_35" d="M374.826 164.125H320.024V171.581H374.826V164.125Z" fill="#F2F2F2" />
        <path id="Vector_36" d="M378.181 168.225H322.634V160.024H378.181V168.225ZM323.379 167.48H377.435V160.769H323.379V167.48Z" fill="#3F3D56" />
        <path id="Vector_37" d="M461.128 134.487H320.211V141.943H461.128V134.487Z" fill="#F2F2F2" />
        <path id="Vector_38" d="M464.484 139.333H322.82V131.132H464.484V139.333ZM323.566 138.588H463.738V131.877H323.566V138.588Z" fill="#3F3D56" />
        <path id="Vector_39" d="M464.297 110.442H408.75V102.24H464.297V110.442ZM409.496 109.696H463.552V102.986H409.496V109.696Z" fill="#3F3D56" />
        <path id="Vector_40" d="M236.54 132.64C230.474 132.64 224.545 130.841 219.502 127.472C214.459 124.102 210.528 119.312 208.207 113.708C205.886 108.105 205.278 101.939 206.462 95.9897C207.645 90.0408 210.566 84.5764 214.855 80.2875C219.144 75.9986 224.608 73.0778 230.557 71.8945C236.506 70.7112 242.672 71.3185 248.276 73.6396C253.879 75.9608 258.669 79.8915 262.039 84.9347C265.409 89.9779 267.207 95.9071 267.207 101.973C267.198 110.103 263.964 117.898 258.215 123.647C252.465 129.397 244.67 132.631 236.54 132.64ZM236.54 72.2345C230.658 72.2345 224.909 73.9786 220.018 77.2463C215.128 80.514 211.316 85.1584 209.065 90.5923C206.815 96.0262 206.226 102.006 207.373 107.774C208.521 113.543 211.353 118.842 215.512 123.001C219.671 127.159 224.97 129.992 230.738 131.139C236.507 132.287 242.486 131.698 247.92 129.447C253.354 127.196 257.998 123.385 261.266 118.494C264.534 113.604 266.278 107.854 266.278 101.973C266.269 94.0883 263.133 86.5295 257.558 80.9545C251.983 75.3795 244.424 72.2435 236.54 72.2345Z" fill="#3F3D56" />
    </g>
    <defs>
        <clipPath id="clip0">
            <rect width="500" height="350.922" fill="white" />
        </clipPath>
    </defs>
</svg>
